When a murder of a physicist, Leonardo Vetra, finds a symbolist, Robert Langdon, and Mr. Vetra's daughter, Vittoria, on an adventure for a secret brotherhood, The Illuminati. Clues lead them all around the Vatican, including the four alters of science, Earth, Air, Fire and Water. An Assassin, working for the Illuminati, has captured four cardinals, and murders each, painfully. Robert and Vittoria also are searching for a new very destructive weapon that could kill millions. 

Tom Hanks 	... 	Robert Langdon 
 	Ewan McGregor 	... 	Camerlengo Patrick McKenna 
 	Ayelet Zurer 	... 	Vittoria Vetra 
 	Stellan Skarsgård 	... 	Commander Rocher 
 	Pierfrancesco Favino 	... 	Inspector Olivetti 
 	Nikolaj Lie Kaas 	... 	Assassin 
 	Armin Mueller-Stahl 	... 	Cardinal Strauss 
 	Thure Lindhardt 	... 	Chartrand 
 	David Pasquesi 	... 	Claudio Vincenzi 
 	Cosimo Fusco 	... 	Father Simeon 
 	Victor Alfieri 	... 	Lieutenant Valenti 
 	Franklin Amobi 	... 	Cardinal Lamasse 
 	Curt Lowens 	... 	Cardinal Ebner 
 	Bob Yerkes 	... 	Cardinal Guidera 
 	Marc Fiorini 	... 	Cardinal Baggia (as Marco Fiorini)

General
Complete name                    : Angels.and.Demons.2009.EXTENDED.BluRay.1080p.x264[HinDi-TaMiL-TeluGu]-[SnowDoN-IcTv].mkv
Format                           : Matroska
File size                        : 4.86 GiB
Duration                         : 2h 26mn
Overall bit rate                 : 4 756 Kbps
Movie name                       : Angels.and.Demons.2009.EXTENDED.BluRay.1080p.x264[HinDi-TaMiL-TeluGu]-[SnowDoN-IcTv]
Encoded date                     : UTC 2011-01-19 23:05:55
Writing application              : mkvmerge v4.4.0 ('Die Wiederkehr') built on Oct 31 2010 21:52:48
Writing library                  : libebml v1.0.0 + libmatroska v1.0.0

Video
ID                               : 1
Format                           : AVC
Format/Info                      : Advanced Video Codec
Format profile                   : High@L4.0
Format settings, CABAC           : Yes
Format settings, ReFrames        : 4 frames
Muxing mode                      : Container profile=Unknown@4.0
Codec ID                         : V_MPEG4/ISO/AVC
Duration                         : 2h 26mn
Bit rate                         : 3 638 Kbps
Nominal bit rate                 : 3 800 Kbps
Width                            : 1 920 pixels
Height                           : 800 pixels
Display aspect ratio             : 2.40:1
Frame rate mode                  : Variable
Frame rate                       : 23.976 fps
Resolution                       : 8 bits
Colorimetry                      : 4:2:0
Scan type                        : Progressive
Bits/(Pixel*Frame)               : 0.099
Stream size                      : 3.71 GiB (76%)
Title                            : Angels.and.Demons.2009.EXTENDED.BluRay.1080p.x264[HinDi-TaMiL-TeluGu]-[SnowDoN-IcTv]
Writing library                  : x264 core 106 r1732 b20059a
Encoding settings                : cabac=1 / ref=3 / deblock=1:0:0 / analyse=0x3:0x113 / me=hex / subme=7 / psy=1 / psy_rd=1.00:0.00 / mixed_ref=1 / me_range=16 / chroma_me=1 / trellis=1 / 8x8dct=1 / cqm=0 / deadzone=21,11 / fast_pskip=1 / chroma_qp_offset=-2 / threads=6 / sliced_threads=0 / nr=0 / decimate=1 / interlaced=0 / constrained_intra=0 / bframes=3 / b_pyramid=2 / b_adapt=1 / b_bias=0 / direct=1 / weightb=1 / open_gop=0 / weightp=2 / keyint=250 / keyint_min=23 / scenecut=40 / intra_refresh=0 / rc_lookahead=40 / rc=abr / mbtree=1 / bitrate=3800 / ratetol=1.0 / qcomp=0.60 / qpmin=10 / qpmax=51 / qpstep=4 / ip_ratio=1.40 / aq=1:1.00
Language                         : Hindi

Audio #1
ID                               : 2
Format                           : AC-3
Format/Info                      : Audio Coding 3
Codec ID                         : A_AC3
Duration                         : 2h 26mn
Bit rate mode                    : Constant
Bit rate                         : 640 Kbps
Channel(s)                       : 6 channels
Channel positions                : Front: L C R, Surround: L R, LFE
Sampling rate                    : 48.0 KHz
Video delay                      : -42ms
Stream size                      : 670 MiB (13%)
Title                            : [HinDi-[SnowDoN-IcTv]
Language                         : Hindi

Audio #2
ID                               : 3
Format                           : AC-3
Format/Info                      : Audio Coding 3
Codec ID                         : A_AC3
Duration                         : 2h 26mn
Bit rate mode                    : Constant
Bit rate                         : 192 Kbps
Channel(s)                       : 6 channels
Channel positions                : Front: L C R, Surround: L R, LFE
Sampling rate                    : 48.0 KHz
Video delay                      : -42ms
Stream size                      : 201 MiB (4%)
Title                            : [TaMiL]-[SnowDoN-IcTv]
Language                         : Tamil

Audio #3
ID                               : 4
Format                           : AC-3
Format/Info                      : Audio Coding 3
Codec ID                         : A_AC3
Duration                         : 2h 26mn
Bit rate mode                    : Constant
Bit rate                         : 192 Kbps
Channel(s)                       : 6 channels
Channel positions                : Front: L C R, Surround: L R, LFE
Sampling rate                    : 48.0 KHz
Video delay                      : -42ms
Stream size                      : 201 MiB (4%)
Title                            : [TeluGu]-[SnowDoN-IcTv]
Language                         : Telugu


RiPPeR's Note:
I do not use TaMiL and TeluGu Audio Untouched, because Every Audio Size was 700 MB... and Final Size would be 5.9 GB .....
So, I just Use Hindi Audio Untouched..
Tamil and Telugu Audio Down to 192 KBps with 5.1 Channels....

If Somebody needs Tamil and Telugu Audio Untouched, i make Separate Link for Them...

Here are Links:
 
http://www.duckload.com/download/2288365/Angels.and.Demons.2009.EXTENDED.BluRay.1080p.x264_HinDi-TaMiL-TeluGu_-_SnowDoN-IcTv_.Tamil.ac3
 
http://www.duckload.com/download/2288356/Angels.and.Demons.2009.EXTENDED.BluRay.1080p.x264_HinDi-TaMiL-TeluGu_-_SnowDoN-IcTv_.Telugu.ac3
 
http://img502.imageshack.us/img502/9581/angel1b.jpg
 
http://img138.imageshack.us/img138/8494/angel2s.jpg
 
http://img510.imageshack.us/img510/228/angel3.jpg
 
http://img341.imageshack.us/img341/4826/angel4o.jpg
 
http://img228.imageshack.us/img228/3531/angel5w.jpg
 
http://img211.imageshack.us/img211/3350/angel7i.jpg
 
http://img5.imageshack.us/img5/82/angel11h.jpg
 
http://img819.imageshack.us/img819/3706/angel12m.jpg



Please Seed After Download




Enjoy Super Seed & KEEP Seeding Guys